<?xml version="1.0" encoding="UTF-8"?>
<svg xmlns="http://www.w3.org/2000/svg" version="1.1" viewBox="0 0 275 283">
  <defs>
    <style>
      .cls-1 {
        fill: #00c8f0;
      }
    </style>
  </defs>
  <!-- Generator: Adobe Illustrator 28.7.2, SVG Export Plug-In . SVG Version: 1.2.0 Build 154)  -->
  <g>
    <g id="Capa_1">
      <g id="bYodkH">
        <path class="cls-1" d="M87.21,117.89c-10.29-19.9-21.79-38.95-33.5-57.88-1.27-2.05,1.09-4.41,3.14-3.15,18.94,11.71,37.99,23.23,57.88,33.5,1.26.65,2.8.01,3.23-1.34,6.57-20.62,11.78-41.5,16.71-62.46.68-2.9,4.81-2.9,5.5,0,4.93,20.96,10.14,41.85,16.7,62.45.43,1.35,1.96,1.99,3.22,1.35,11.1-5.64,21.83-11.73,32.41-18.07,8.59-5.15,17.13-10.37,25.69-15.6,2.06-1.26,4.4,1.11,3.13,3.16-11.81,18.95-23.37,38.08-33.68,58.03-.65,1.25-.02,2.79,1.32,3.23,11.82,3.86,23.71,7.13,35.66,10.13,9.71,2.44,19.44,4.78,29.22,7.13,2.34.56,2.33,3.9-.02,4.45-21.78,5.06-43.45,10.41-64.85,17.22-1.35.43-1.99,1.97-1.34,3.23,10.26,19.88,21.78,38.93,33.5,57.88,1.27,2.05-1.09,4.41-3.14,3.14-18.92-11.7-37.96-23.21-57.87-33.5-1.26-.65-2.8-.01-3.23,1.34-6.8,21.33-12.14,42.98-17.24,64.71-.55,2.35-3.9,2.35-4.45,0-5.08-21.69-10.42-43.33-17.23-64.71-.43-1.35-1.97-1.99-3.23-1.34-19.9,10.28-38.99,21.81-57.96,33.58-2.05,1.27-4.42-1.09-3.15-3.14,11.75-18.94,23.27-38.02,33.58-57.96.65-1.26.01-2.8-1.34-3.23-21.34-6.8-42.98-12.14-64.69-17.23-2.35-.55-2.35-3.9,0-4.45,21.69-5.09,43.32-10.43,64.69-17.23,1.35-.43,1.99-1.97,1.34-3.23Z"/>
      </g>
    </g>
  </g>
</svg>